<svg width="89" height="26" viewBox="0 0 89 26" fill="none" xmlns="http://www.w3.org/2000/svg">
<path d="M0.84 10.6C0.84 8.952 1.208 7.48 1.944 6.184C2.696 4.872 3.712 3.856 4.992 3.136C6.288 2.4 7.736 2.032 9.336 2.032C11.208 2.032 12.848 2.512 14.256 3.472C15.664 4.432 16.648 5.76 17.208 7.456H13.344C12.96 6.656 12.416 6.056 11.712 5.656C11.024 5.256 10.224 5.056 9.312 5.056C8.336 5.056 7.464 5.288 6.696 5.752C5.944 6.2 5.352 6.84 4.92 7.672C4.504 8.504 4.296 9.48 4.296 10.6C4.296 11.704 4.504 12.68 4.92 13.528C5.352 14.36 5.944 15.008 6.696 15.472C7.464 15.92 8.336 16.144 9.312 16.144C10.224 16.144 11.024 15.944 11.712 15.544C12.416 15.128 12.96 14.52 13.344 13.72H17.208C16.648 15.432 15.664 16.768 14.256 17.728C12.864 18.672 11.224 19.144 9.336 19.144C7.736 19.144 6.288 18.784 4.992 18.064C3.712 17.328 2.696 16.312 1.944 15.016C1.208 13.72 0.84 12.248 0.84 10.6ZM31.9579 12.064C31.9579 12.544 31.9259 12.976 31.8619 13.36H22.1419C22.2219 14.32 22.5579 15.072 23.1499 15.616C23.7419 16.16 24.4699 16.432 25.3339 16.432C26.5819 16.432 27.4699 15.896 27.9979 14.824H31.6219C31.2379 16.104 30.5019 17.16 29.4139 17.992C28.3259 18.808 26.9899 19.216 25.4059 19.216C24.1259 19.216 22.9739 18.936 21.9499 18.376C20.9419 17.8 20.1499 16.992 19.5739 15.952C19.0139 14.912 18.7339 13.712 18.7339 12.352C18.7339 10.976 19.0139 9.768 19.5739 8.728C20.1339 7.688 20.9179 6.888 21.9259 6.328C22.9339 5.768 24.0939 5.488 25.4059 5.488C26.6699 5.488 27.7979 5.76 28.7899 6.304C29.7979 6.848 30.5739 7.624 31.1179 8.632C31.6779 9.624 31.9579 10.768 31.9579 12.064ZM28.4779 11.104C28.4619 10.24 28.1499 9.552 27.5419 9.04C26.9339 8.512 26.1899 8.248 25.3099 8.248C24.4779 8.248 23.7739 8.504 23.1979 9.016C22.6379 9.512 22.2939 10.208 22.1659 11.104H28.4779ZM37.2904 1.24V19H33.9304V1.24H37.2904ZM46.0341 19.216C44.7541 19.216 43.6021 18.936 42.5781 18.376C41.5541 17.8 40.7461 16.992 40.1541 15.952C39.5781 14.912 39.2901 13.712 39.2901 12.352C39.2901 10.992 39.5861 9.792 40.1781 8.752C40.7861 7.712 41.6101 6.912 42.6501 6.352C43.6901 5.776 44.8501 5.488 46.1301 5.488C47.4101 5.488 48.5701 5.776 49.6101 6.352C50.6501 6.912 51.4661 7.712 52.0581 8.752C52.6661 9.792 52.9701 10.992 52.9701 12.352C52.9701 13.712 52.6581 14.912 52.0341 15.952C51.4261 16.992 50.5941 17.8 49.5381 18.376C48.4981 18.936 47.3301 19.216 46.0341 19.216ZM46.0341 16.288C46.6421 16.288 47.2101 16.144 47.7381 15.856C48.2821 15.552 48.7141 15.104 49.0341 14.512C49.3541 13.92 49.5141 13.2 49.5141 12.352C49.5141 11.088 49.1781 10.12 48.5061 9.448C47.8501 8.76 47.0421 8.416 46.0821 8.416C45.1221 8.416 44.3141 8.76 43.6581 9.448C43.0181 10.12 42.6981 11.088 42.6981 12.352C42.6981 13.616 43.0101 14.592 43.6341 15.28C44.2741 15.952 45.0741 16.288 46.0341 16.288Z" fill="#1F7FFF"/>
<path d="M58.3148 7.624C58.7468 7.016 59.3388 6.512 60.0908 6.112C60.8588 5.696 61.7308 5.488 62.7068 5.488C63.8428 5.488 64.8668 5.768 65.7788 6.328C66.7068 6.888 67.4348 7.688 67.9628 8.728C68.5068 9.752 68.7788 10.944 68.7788 12.304C68.7788 13.664 68.5068 14.872 67.9628 15.928C67.4348 16.968 66.7068 17.776 65.7788 18.352C64.8668 18.928 63.8428 19.216 62.7068 19.216C61.7308 19.216 60.8668 19.016 60.1148 18.616C59.3788 18.216 58.7788 17.712 58.3148 17.104V25.336H54.9548V5.704H58.3148V7.624ZM65.3468 12.304C65.3468 11.504 65.1788 10.816 64.8428 10.24C64.5228 9.648 64.0908 9.2 63.5468 8.896C63.0188 8.592 62.4428 8.44 61.8188 8.44C61.2108 8.44 60.6348 8.6 60.0908 8.92C59.5628 9.224 59.1308 9.672 58.7948 10.264C58.4748 10.856 58.3148 11.552 58.3148 12.352C58.3148 13.152 58.4748 13.848 58.7948 14.44C59.1308 15.032 59.5628 15.488 60.0908 15.808C60.6348 16.112 61.2108 16.264 61.8188 16.264C62.4428 16.264 63.0188 16.104 63.5468 15.784C64.0908 15.464 64.5228 15.008 64.8428 14.416C65.1788 13.824 65.3468 13.12 65.3468 12.304ZM72.4444 4.12C71.8524 4.12 71.3564 3.936 70.9564 3.568C70.5724 3.184 70.3804 2.712 70.3804 2.152C70.3804 1.592 70.5724 1.128 70.9564 0.759999C71.3564 0.375999 71.8524 0.183999 72.4444 0.183999C73.0364 0.183999 73.5244 0.375999 73.9084 0.759999C74.3084 1.128 74.5084 1.592 74.5084 2.152C74.5084 2.712 74.3084 3.184 73.9084 3.568C73.5244 3.936 73.0364 4.12 72.4444 4.12ZM74.1004 5.704V19H70.7404V5.704H74.1004ZM84.2841 19L81.5481 14.872L79.1241 19H75.5241L79.8681 12.328L75.4761 5.704H79.2681L81.9801 9.808L84.4281 5.704H88.0281L83.6601 12.328L88.0761 19H84.2841Z" fill="#8F72FF"/>
</svg>
